<mxfile host="app.diagrams.net" modified="2024-02-25T06:26:40.410Z" agent="Mozilla/5.0 (Windows NT 10.0; Win64; x64) AppleWebKit/537.36 (KHTML, like Gecko) Chrome/121.0.0.0 Safari/537.36" version="21.3.2" etag="Xn290Rm0L8kmdzB1u1Rg" type="github">
  <diagram name="페이지-1" id="FOFIYRxfBVMPbfTRh580">
    <mxGraphModel>
      <root>
        <mxCell id="0" />
        <mxCell id="1" parent="0" />
      </root>
    </mxGraphModel>
  </diagram>
</mxfile>
